<?xml version="1.0" standalone="no"?>
<!DOCTYPE svg PUBLIC "-//W3C//DTD SVG 20010904//EN"
 "http://www.w3.org/TR/2001/REC-SVG-20010904/DTD/svg10.dtd">
<svg version="1.0" xmlns="http://www.w3.org/2000/svg"
 width="887.000000pt" height="550.000000pt" viewBox="0 0 887.000000 550.000000"
 preserveAspectRatio="xMidYMid meet">

<g transform="translate(0.000000,550.000000) scale(0.100000,-0.100000)"
fill="#000000" stroke="none">
<path d="M712 4750 c-110 -4 -177 -11 -184 -18 -7 -7 -22 -12 -35 -12 -63 0
-147 -68 -176 -144 -16 -41 -40 -321 -40 -466 0 -149 24 -428 41 -466 18 -43
55 -94 68 -94 8 0 17 -6 20 -14 18 -48 298 -74 779 -74 423 0 702 20 758 55
49 29 94 81 107 121 46 138 61 614 26 817 -19 114 -34 165 -46 165 -5 0 -11 8
-15 19 -8 27 -76 71 -121 78 -22 3 -45 10 -51 15 -29 23 -724 34 -1131 18z
m351 -396 c18 -9 34 -20 37 -24 3 -4 41 -26 85 -49 43 -23 82 -45 85 -49 3 -4
24 -16 48 -26 23 -11 42 -22 42 -26 0 -5 18 -15 41 -24 39 -16 76 -43 68 -50
-8 -7 -133 -79 -283 -164 -41 -23 -92 -53 -112 -67 -20 -14 -45 -25 -55 -25
-18 0 -19 13 -19 260 0 287 -3 277 63 244z"/>
<path d="M4500 3965 l0 -295 40 0 c36 0 40 3 40 25 0 31 7 31 35 1 46 -50 134
-44 195 13 21 20 43 47 48 61 33 88 20 206 -28 262 -29 32 -31 33 -111 33 -76
0 -82 -2 -103 -27 -12 -16 -25 -28 -29 -28 -4 0 -7 56 -7 125 l0 125 -40 0
-40 0 0 -295z m262 15 c35 -43 43 -94 23 -155 -20 -65 -50 -90 -107 -89 -40 1
-78 26 -78 51 0 7 -4 13 -10 13 -6 0 -10 27 -10 60 0 48 5 68 26 100 14 21 33
41 42 44 36 10 97 -3 114 -24z"/>
<path d="M2207 4183 c8 -21 19 -40 23 -43 4 -3 15 -26 25 -52 10 -27 21 -48
24 -48 4 0 15 -22 25 -50 10 -27 21 -50 25 -50 17 0 31 -75 31 -168 l0 -102
45 0 45 0 0 102 c0 92 14 168 31 168 3 0 14 21 24 47 10 26 22 52 27 58 10 13
88 162 88 170 0 8 -73 6 -87 -3 -6 -4 -19 -27 -29 -52 -10 -25 -20 -47 -24
-50 -4 -3 -14 -24 -23 -46 -9 -23 -25 -57 -36 -75 -18 -29 -21 -31 -21 -12 0
12 -7 28 -15 37 -8 8 -15 17 -15 21 0 4 -15 39 -34 78 -18 40 -36 80 -39 90
-5 13 -18 17 -56 17 l-50 0 16 -37z"/>
<path d="M3570 4185 l0 -35 78 0 77 0 0 -237 0 -238 43 -3 42 -3 0 240 0 240
78 3 77 3 3 33 3 32 -200 0 -201 0 0 -35z"/>
<path d="M5580 3946 l0 -276 45 0 45 0 0 115 0 115 41 0 c56 0 79 -23 150
-157 13 -24 27 -43 31 -43 4 0 8 -7 8 -15 0 -11 12 -15 50 -15 38 0 50 4 50
15 0 8 -4 15 -10 15 -5 0 -16 16 -24 35 -8 19 -19 35 -23 35 -5 0 -16 17 -25
38 -9 21 -34 57 -57 80 -45 46 -48 52 -28 52 30 0 75 32 88 63 17 40 17 119
-1 152 -27 51 -54 60 -202 63 l-138 4 0 -276z m209 204 c43 -12 60 -36 61 -84
0 -31 -6 -44 -32 -67 -28 -24 -42 -29 -90 -29 l-58 0 0 95 0 95 43 0 c23 0 57
-4 76 -10z"/>
<path d="M2785 4063 c-103 -26 -159 -210 -93 -306 14 -22 43 -51 65 -65 33
-23 48 -27 109 -27 52 1 76 5 88 17 9 9 25 20 36 23 11 3 20 10 20 15 0 5 10
19 23 30 20 19 22 30 22 123 0 95 -2 105 -25 134 -14 18 -42 39 -63 47 -36 15
-137 20 -182 9z m162 -79 c36 -49 40 -161 7 -211 -27 -42 -110 -48 -161 -12
-70 49 -52 210 27 242 30 13 113 0 127 -19z"/>
<path d="M3157 4064 c-11 -12 -8 -261 4 -307 16 -60 57 -91 123 -91 41 -1 58
4 89 28 l37 28 0 -26 c0 -24 3 -26 45 -26 l45 0 0 201 0 200 -42 -3 -43 -3 -5
-140 c-3 -77 -9 -147 -13 -156 -10 -20 -67 -38 -101 -32 -45 9 -51 26 -56 182
l-5 146 -35 3 c-20 2 -39 0 -43 -4z"/>
<path d="M4047 4064 c-11 -12 -8 -261 4 -308 15 -60 57 -90 124 -91 42 0 57 5
86 29 l34 29 3 -26 c3 -25 7 -27 48 -27 l44 0 -2 198 -3 197 -40 0 -40 0 -5
-140 c-3 -77 -9 -146 -14 -154 -13 -21 -68 -40 -99 -34 -54 10 -66 45 -69 194
l-3 134 -30 3 c-17 2 -34 0 -38 -4z"/>
<path d="M5045 4051 c-72 -47 -104 -124 -91 -224 10 -69 29 -102 79 -134 36
-24 52 -28 112 -27 84 0 125 21 125 63 l0 28 -60 -16 c-53 -14 -64 -14 -102
-1 -42 15 -76 56 -77 93 -1 15 12 17 140 17 l142 0 -6 53 c-7 68 -46 136 -87
154 -48 20 -139 17 -175 -6z m148 -54 c10 -6 20 -29 24 -50 l6 -37 -97 0 c-53
0 -96 1 -96 3 0 15 44 83 58 89 28 11 87 9 105 -5z"/>
<path d="M6145 4060 c-38 -15 -82 -75 -100 -133 -15 -49 -16 -64 -6 -100 26
-92 40 -113 97 -142 48 -24 62 -27 115 -22 76 8 109 29 109 69 0 25 -3 29 -17
23 -10 -4 -31 -11 -48 -15 -16 -4 -34 -9 -40 -10 -23 -7 -85 13 -104 34 -11
12 -24 36 -27 54 l-6 32 141 0 141 0 0 30 c0 16 -4 39 -9 52 -36 92 -44 106
-77 122 -37 17 -134 21 -169 6z m138 -64 c10 -8 21 -30 24 -50 l6 -36 -97 0
c-76 0 -96 3 -96 14 0 8 7 21 15 30 8 8 15 19 15 25 0 29 99 42 133 17z"/>
<path d="M6433 4053 c19 -59 49 -142 61 -168 8 -16 20 -50 27 -75 7 -25 18
-54 25 -65 6 -11 14 -32 18 -47 6 -25 11 -28 51 -28 43 0 45 1 56 40 7 22 15
40 19 40 4 0 13 21 20 48 8 26 22 63 32 82 10 19 18 40 18 47 0 7 11 37 25 67
34 74 33 78 -17 74 -41 -3 -43 -4 -58 -53 -9 -27 -21 -62 -28 -76 -6 -15 -16
-46 -22 -69 -6 -23 -15 -50 -20 -59 -5 -9 -12 -25 -16 -36 -5 -16 -8 -13 -16
19 -4 22 -12 44 -17 50 -5 6 -17 40 -26 74 -9 35 -20 71 -26 80 -5 10 -13 29
-19 45 -8 24 -15 27 -51 27 -35 0 -40 -3 -36 -17z"/>
<path d="M6945 4051 c-72 -47 -104 -124 -91 -224 10 -69 29 -102 79 -134 36
-24 52 -28 112 -27 84 0 125 21 125 63 l0 28 -60 -16 c-53 -14 -64 -14 -102
-1 -42 15 -76 56 -77 93 -1 15 12 17 140 17 l142 0 -6 53 c-7 68 -46 136 -87
154 -48 20 -139 17 -175 -6z m148 -54 c10 -6 20 -29 24 -50 l6 -37 -97 0 c-53
0 -96 1 -96 3 0 15 44 83 58 89 28 11 87 9 105 -5z"/>
<path d="M7300 3870 l0 -200 35 0 35 0 0 109 c0 136 5 161 40 200 40 43 87 43
124 -1 25 -31 26 -35 26 -170 l0 -138 41 0 41 0 -4 158 c-4 175 -14 210 -68
232 -18 7 -53 11 -86 8 -45 -4 -60 -10 -82 -34 l-27 -29 -3 33 c-3 29 -6 32
-38 32 l-34 0 0 -200z"/>
<path d="M7752 3900 l3 -170 35 -32 c31 -28 42 -32 91 -32 49 -1 59 3 90 32
l34 32 3 -31 c3 -28 6 -30 40 -27 l37 3 0 195 0 195 -37 3 -36 3 -4 -140 c-3
-130 -5 -141 -26 -164 -39 -41 -99 -41 -140 0 -14 14 -18 42 -20 160 l-4 143
-35 0 -35 0 4 -170z"/>
<path d="M8291 4060 c-132 -56 -149 -285 -27 -367 34 -23 52 -27 106 -28 88 0
140 24 140 65 0 35 1 35 -70 11 -43 -14 -61 -16 -88 -8 -49 15 -82 50 -82 87
l0 30 130 0 130 0 0 50 c0 60 -18 106 -54 140 -22 20 -39 25 -94 27 -37 2 -78
-2 -91 -7z m137 -72 c11 -13 24 -35 27 -50 l7 -28 -96 0 c-109 0 -119 9 -70
68 22 27 34 32 69 32 30 0 47 -6 63 -22z"/>
<path d="M2447 2453 c-4 -3 -7 -26 -7 -50 0 -47 19 -65 48 -46 18 11 24 72 9
91 -10 13 -39 16 -50 5z"/>
<path d="M4037 2454 c-4 -4 -7 -27 -7 -50 0 -38 3 -44 26 -50 35 -9 46 6 42
57 -3 39 -6 44 -28 47 -14 2 -29 0 -33 -4z"/>
<path d="M2027 2403 c-4 -3 -7 -105 -7 -226 0 -211 1 -219 20 -224 14 -4 19
-11 15 -23 -4 -12 1 -19 15 -23 11 -3 20 -13 20 -25 0 -11 6 -25 14 -32 8 -6
12 -18 9 -25 -3 -9 5 -17 21 -21 34 -8 56 1 56 24 0 11 6 25 14 32 8 6 13 17
10 25 -3 7 3 16 15 20 12 3 21 15 21 26 0 11 7 22 15 25 13 5 15 40 15 225 l0
219 -24 6 c-14 3 -30 3 -35 -1 -7 -4 -11 -82 -11 -226 0 -186 -2 -221 -15
-225 -8 -4 -15 -14 -15 -24 0 -17 -36 -34 -52 -24 -4 3 -8 13 -8 23 0 10 -7
24 -15 31 -13 11 -16 45 -15 221 1 115 -1 213 -5 219 -7 11 -48 14 -58 3z"/>
<path d="M3657 2404 c-4 -4 -7 -29 -7 -55 0 -46 1 -48 28 -46 l27 2 0 -200 0
-200 -25 0 c-23 0 -25 -3 -25 -50 l0 -50 75 -3 c112 -4 119 -1 117 53 -1 25
-6 46 -12 46 -5 1 -19 2 -30 3 -19 1 -20 9 -23 249 -1 136 -3 247 -5 248 -20
6 -115 8 -120 3z"/>
<path d="M5277 2404 c-4 -4 -7 -16 -7 -26 0 -10 -7 -21 -15 -24 -8 -4 -15 -14
-15 -24 0 -10 -7 -20 -15 -24 -11 -4 -15 -20 -15 -56 0 -38 4 -50 15 -50 8 0
15 -9 15 -20 0 -11 6 -20 14 -20 9 0 16 -12 18 -27 2 -22 8 -28 28 -28 19 0
26 -6 28 -24 2 -13 12 -25 21 -28 15 -4 18 -15 17 -74 0 -38 -3 -69 -6 -70 -3
0 -15 -2 -27 -5 -17 -3 -22 2 -25 24 -3 25 -6 27 -48 27 -39 0 -45 -3 -48 -23
-2 -13 3 -25 12 -28 9 -3 16 -14 16 -24 0 -10 6 -20 14 -23 8 -3 16 -16 18
-29 3 -21 9 -23 58 -25 53 -1 85 11 75 27 -3 4 2 13 10 20 8 7 15 21 15 31 0
10 8 23 18 28 23 12 23 79 -1 93 -9 5 -17 18 -17 29 0 11 -7 22 -16 26 -8 3
-13 12 -10 19 3 8 -3 20 -14 26 -11 7 -20 21 -20 31 0 10 -7 20 -15 23 -8 4
-15 14 -15 24 0 10 -7 21 -16 24 -11 4 -14 17 -12 53 3 40 6 47 26 48 12 1 23
-2 23 -7 1 -4 2 -12 3 -17 4 -28 78 -38 98 -13 10 12 9 17 -10 30 -12 8 -22
22 -22 32 0 10 -6 23 -14 30 -8 6 -13 17 -10 25 3 7 -3 15 -13 18 -29 8 -108
8 -116 1z"/>
<path d="M6234 2398 c-4 -6 -7 -37 -6 -69 0 -38 -5 -62 -14 -70 -20 -16 -19
-98 2 -106 13 -5 15 -26 13 -146 -3 -118 -1 -141 13 -151 9 -6 17 -20 19 -31
4 -17 13 -20 54 -20 71 -1 75 2 75 50 0 42 -18 64 -41 49 -5 -3 -18 -2 -29 1
-19 6 -20 14 -18 128 l3 121 35 2 c19 1 38 2 43 3 4 1 7 21 7 46 0 38 -3 45
-22 50 -13 2 -32 4 -43 2 -18 -2 -20 5 -25 73 -5 73 -6 75 -32 77 -15 1 -31
-3 -34 -9z"/>
<path d="M2374 2246 c-3 -8 -4 -31 -2 -52 3 -36 5 -39 33 -39 l30 0 0 -125 0
-125 -30 0 c-29 0 -30 -1 -30 -50 l0 -50 80 -1 c104 -1 116 5 111 59 -3 36 -7
42 -29 45 -23 3 -26 8 -32 65 -4 34 -5 108 -3 165 5 118 2 122 -77 122 -30 0
-47 -5 -51 -14z"/>
<path d="M2724 2251 c-2 -2 -4 -14 -4 -27 0 -12 -7 -24 -15 -28 -8 -3 -12 -12
-9 -20 3 -9 -3 -17 -15 -21 -28 -8 -30 -81 -3 -101 9 -7 18 -17 18 -23 1 -6 2
-15 3 -20 0 -5 20 -8 44 -7 46 2 81 -10 72 -24 -3 -5 3 -15 15 -22 11 -7 20
-22 20 -34 0 -20 -4 -22 -52 -19 -29 2 -56 4 -60 4 -4 1 -8 11 -10 24 -2 17
-10 22 -33 22 -23 0 -31 -5 -33 -22 -2 -16 2 -23 12 -23 9 0 16 -4 16 -10 0
-21 2 -25 15 -40 7 -8 15 -24 17 -35 3 -17 12 -20 58 -21 58 -1 82 9 74 30 -3
8 4 16 15 19 12 3 21 13 21 24 0 10 4 23 9 28 14 15 17 81 4 96 -6 8 -13 23
-15 34 -3 17 -11 20 -63 20 -55 0 -60 2 -63 23 -2 13 -10 26 -18 29 -14 5 -20
42 -6 44 4 0 29 1 57 2 45 1 50 -1 55 -23 7 -28 42 -36 61 -13 9 10 8 18 -5
31 -9 10 -16 26 -16 35 0 9 -9 21 -20 27 -11 6 -18 15 -15 19 10 18 -23 30
-74 29 -29 -2 -54 -4 -57 -7z"/>
<path d="M2987 2254 c-4 -4 -7 -83 -7 -175 0 -139 2 -168 15 -173 8 -3 15 -13
15 -23 0 -10 9 -24 20 -31 12 -7 18 -17 15 -22 -3 -5 3 -14 14 -19 42 -23 96
-6 84 25 -9 24 12 15 22 -8 7 -17 18 -23 40 -23 l30 0 0 225 0 225 -28 1 c-15
1 -30 -4 -34 -9 -3 -6 -5 -68 -4 -139 2 -102 -1 -133 -12 -146 -8 -10 -17 -26
-19 -37 -5 -28 -51 -28 -57 0 -2 11 -9 24 -17 30 -10 7 -14 47 -16 155 l-3
145 -25 3 c-14 2 -29 0 -33 -4z"/>
<path d="M3343 2253 c-8 -3 -13 -22 -13 -48 0 -51 7 -55 95 -52 58 2 60 1 60
-23 0 -24 -2 -25 -55 -22 -71 4 -100 -4 -100 -27 0 -10 -7 -21 -15 -25 -12 -4
-15 -25 -15 -101 0 -76 3 -97 15 -101 8 -4 15 -14 15 -24 0 -10 7 -21 16 -24
28 -11 192 -7 200 5 4 6 6 84 6 172 -1 133 -4 162 -17 169 -8 5 -15 18 -15 29
0 11 -7 22 -15 25 -10 4 -13 13 -10 24 4 12 0 20 -12 23 -21 7 -123 6 -140 0z
m142 -298 l0 -49 -40 -2 c-74 -4 -86 2 -84 44 3 52 10 57 71 57 l53 0 0 -50z"/>
<path d="M3974 2249 c-9 -16 -10 -72 0 -88 4 -6 13 -11 19 -10 36 4 37 0 37
-121 0 -89 -3 -120 -12 -122 -7 0 -17 -2 -23 -2 -23 -3 -32 -17 -33 -50 -2
-50 14 -57 110 -54 l83 3 0 50 c0 48 -1 50 -27 48 l-28 -2 -2 177 -3 177 -57
3 c-36 2 -59 -1 -64 -9z"/>
<path d="M4260 2245 c-12 -16 -10 -74 3 -82 7 -4 41 -8 77 -9 58 -1 65 -3 68
-23 2 -12 -3 -24 -12 -27 -9 -3 -16 -14 -16 -24 0 -10 -7 -20 -15 -24 -8 -3
-15 -13 -15 -23 0 -10 -9 -24 -21 -31 -11 -7 -18 -19 -15 -27 2 -7 -2 -16 -10
-19 -8 -3 -14 -15 -14 -27 0 -12 -8 -23 -18 -26 -14 -3 -18 -14 -18 -46 -1
-23 4 -45 9 -48 5 -4 63 -7 129 -7 l119 -1 -3 52 -3 52 -72 0 c-56 0 -74 4
-79 15 -3 9 3 21 15 29 12 7 21 21 21 31 0 10 7 23 15 30 8 7 12 16 10 21 -3
5 3 14 15 21 11 7 20 21 20 31 0 10 7 20 16 24 8 3 13 12 10 19 -3 7 4 20 15
28 16 11 20 23 17 55 l-3 42 -118 2 c-70 1 -122 -2 -127 -8z"/>
<path d="M4637 2254 c-4 -4 -7 -15 -7 -24 0 -10 -7 -23 -15 -30 -8 -7 -12 -16
-10 -21 3 -5 -3 -14 -15 -21 -18 -12 -20 -23 -20 -135 0 -68 3 -122 8 -122 22
4 34 -3 29 -15 -3 -8 0 -20 8 -26 8 -6 15 -21 17 -33 3 -20 9 -22 62 -22 48 0
61 4 70 20 6 11 17 24 25 30 7 6 11 20 9 31 -3 16 -12 19 -63 19 -57 0 -60 1
-60 24 0 23 3 24 67 25 36 1 70 4 74 8 10 11 5 181 -7 193 -5 5 -9 18 -9 28 0
11 -9 21 -21 24 -11 3 -18 11 -15 19 3 7 -1 16 -7 21 -16 11 -110 17 -120 7z
m87 -103 c4 -1 6 -8 2 -16 -3 -8 4 -21 15 -29 12 -8 19 -22 17 -32 -3 -16 -12
-19 -53 -17 -28 0 -53 1 -57 2 -14 2 -8 39 7 45 8 3 15 14 15 24 0 24 7 31 28
27 9 -2 21 -4 26 -4z"/>
<path d="M5534 2248 c-5 -7 -8 -86 -9 -176 0 -146 2 -163 18 -168 9 -3 17 -14
17 -25 0 -11 7 -22 15 -25 8 -4 15 -15 15 -25 0 -22 38 -34 75 -25 17 4 25 13
25 27 0 12 5 19 13 16 14 -4 17 -126 3 -134 -4 -3 -38 -6 -75 -7 l-66 -1 0
-50 0 -50 75 0 75 0 6 30 c4 17 7 26 8 21 0 -5 7 -3 15 4 8 6 13 17 10 24 -3
8 2 16 10 19 14 6 16 41 16 277 0 241 -2 271 -16 277 -9 3 -24 2 -32 -3 -13
-8 -15 -33 -13 -146 2 -129 1 -137 -18 -148 -12 -6 -21 -20 -21 -31 0 -25 -25
-35 -45 -19 -9 7 -13 15 -10 18 3 3 -2 13 -10 22 -11 12 -15 50 -17 160 l-3
145 -27 3 c-14 2 -30 -3 -34 -10z"/>
<path d="M5915 2251 c-3 -2 -5 -12 -5 -20 0 -9 -9 -22 -20 -29 -12 -7 -18 -16
-15 -21 2 -5 -2 -14 -10 -21 -21 -17 -20 -99 1 -107 8 -3 13 -11 10 -19 -8
-20 15 -30 64 -29 47 1 74 -10 64 -27 -3 -5 2 -15 11 -22 32 -23 15 -48 -38
-51 -44 -3 -61 5 -62 29 0 15 -31 30 -49 23 -20 -8 -21 -40 -1 -57 8 -7 12
-17 9 -22 -3 -5 3 -12 14 -15 13 -3 22 -15 24 -32 3 -24 7 -26 53 -27 62 -1
75 3 75 26 0 10 7 20 15 24 8 3 15 13 15 23 0 10 9 24 19 30 23 15 22 80 -1
97 -9 6 -17 20 -19 31 -4 16 -13 20 -59 20 -49 0 -55 2 -58 23 -2 12 -12 27
-23 32 -21 12 -26 40 -6 41 98 5 101 5 107 -21 7 -31 50 -39 71 -14 12 14 10
19 -9 34 -12 10 -22 26 -22 34 0 9 -7 19 -15 22 -8 4 -15 15 -15 25 0 11 -8
20 -17 21 -45 4 -104 3 -108 -1z"/>
<path d="M6555 2252 c-3 -3 -5 -13 -5 -23 0 -10 -9 -23 -20 -29 -11 -6 -18
-15 -15 -20 3 -5 -4 -14 -15 -20 -18 -10 -20 -20 -20 -130 0 -110 2 -120 20
-130 11 -6 18 -15 15 -20 -3 -5 3 -14 14 -19 11 -6 21 -21 23 -33 3 -20 10
-23 51 -26 47 -3 82 11 72 28 -3 5 4 15 16 23 12 9 19 23 17 34 -3 15 -13 18
-63 19 -57 0 -60 1 -60 25 0 23 3 24 65 25 36 1 71 2 78 3 19 2 17 187 -3 195
-8 3 -15 15 -15 26 0 11 -5 20 -10 20 -6 0 -15 11 -20 25 -6 16 -18 25 -32 26
-13 1 -37 2 -55 4 -18 1 -35 0 -38 -3z m76 -102 c5 0 9 -9 9 -19 0 -10 7 -22
16 -25 9 -3 14 -15 12 -28 -3 -20 -9 -23 -50 -23 -59 1 -79 17 -55 43 9 10 17
25 17 34 0 20 11 30 28 23 7 -3 18 -5 23 -5z"/>
<path d="M6809 2248 c-1 -15 -1 -429 0 -441 1 -5 13 -7 29 -5 l27 3 3 178 c2
136 5 178 15 174 9 -2 13 -53 17 -178 5 -166 6 -174 25 -174 38 0 41 10 38
147 -3 137 3 198 18 198 5 0 9 -76 9 -169 0 -178 1 -183 46 -177 18 3 19 17
22 196 2 182 1 194 -17 207 -12 7 -18 20 -15 28 4 10 0 15 -15 15 -14 0 -21
-6 -21 -20 0 -11 -7 -20 -15 -20 -9 0 -15 6 -14 13 3 27 -2 34 -30 34 -25 0
-31 -5 -33 -25 -4 -36 -26 -39 -30 -5 -2 22 -9 29 -30 31 -18 2 -28 -2 -29
-10z"/>
</g>
</svg>
